<svg width="37" height="36" viewBox="0 0 37 36" fill="none" xmlns="http://www.w3.org/2000/svg">
<path d="M14.0918 15.9878C20.3987 1.56323 31.3388 -0.181379 36.0204 0.749381C34.6027 5.66066 29.4011 16.3275 19.9373 19.7046C12.9542 22.1965 11.779 22.6155 11.6479 22.5824C11.165 24.1255 10.729 25.6919 10.3361 27.2657C10.1238 28.1158 9.92409 28.9682 9.7363 29.8201C0.643766 22.0832 -0.627584 15.6767 1.35052 11.835C5.94455 12.5417 12.0731 17.7949 11.8923 21.8162C12.5416 19.8175 13.2719 17.8629 14.0918 15.9878Z" fill="#BACC5C"/>
<path d="M11.6899 22.4486C11.677 22.6516 10.4735 23.0818 19.9373 19.7046C29.4011 16.3275 34.6027 5.66066 36.0204 0.749381C31.3388 -0.181379 20.3987 1.56323 14.0918 15.9878C13.2719 17.8629 12.5416 19.8175 11.8923 21.8162M11.6899 22.4486C14.7523 18.4677 22.013 9.91098 26.5567 7.53122M11.6899 22.4486C11.7565 22.2373 11.8239 22.0265 11.8923 21.8162M11.6899 22.4486C11.1902 24.0349 10.7404 25.6464 10.3361 27.2657M11.8923 21.8162C12.0731 17.7949 5.94455 12.5417 1.35052 11.835C-0.627584 15.6767 0.643767 22.0832 9.7363 29.8201M9.7363 29.8201C9.92409 28.9682 10.1238 28.1158 10.3361 27.2657M9.7363 29.8201C9.69926 31.2615 9.63978 34.3195 9.6982 35.0206M10.3361 27.2657C9.54168 25.1818 7.2812 20.1272 4.59446 16.5799" stroke="#BACC5C" stroke-width="1.08644" stroke-linejoin="round"/>
</svg>
