<svg width="32" height="47" viewBox="0 0 32 47" fill="none" xmlns="http://www.w3.org/2000/svg">
<path d="M10.4975 3.66951C8.88942 -0.595685 11.5692 0.116827 13.11 1.00623C13.0776 2.07314 12.7069 4.4895 11.484 5.61967C11.3443 5.52584 11.1775 5.41992 10.9911 5.30872C11.1791 6.06517 11.3547 6.93028 11.518 7.87184C12.4501 6.94514 14.5866 5.43729 15.676 6.81952C16.7654 8.20175 13.5706 9.45357 11.837 9.9067C11.9692 10.8357 12.0916 11.8089 12.2045 12.8026C12.2386 13.1023 12.2717 13.404 12.3041 13.7068C12.7285 12.569 13.9963 10.4982 15.6712 11.3172C17.7648 12.341 13.7702 15.9593 12.5875 16.6258C12.6432 17.2562 12.6952 17.8829 12.7437 18.5002C12.1742 18.5408 8.63489 17.7508 9.77442 16.3659C10.686 15.2579 12.0297 16.0775 12.5875 16.6258C12.5247 15.9139 12.4572 15.1974 12.3849 14.4846C9.72878 14.6089 6.64336 11.7662 8.52862 10.7842C10.0368 9.99871 11.6076 11.8025 12.2045 12.8026C12.0916 11.8089 11.9692 10.8357 11.837 9.9067C11.7364 9.19939 11.6301 8.51764 11.518 7.87184C6.61442 7.60865 5.87007 4.58651 7.27359 4.16042C8.22877 3.87044 9.92877 4.67509 10.9911 5.30872C10.8352 4.68147 10.6707 4.12895 10.4975 3.66951Z" fill="#970970"/>
<path d="M13.1878 25.8338C13.1119 23.9543 12.9654 21.3256 12.7437 18.5002M11.518 7.87184C11.2192 6.14954 10.8796 4.68302 10.4975 3.66951C8.88942 -0.595685 11.5692 0.116827 13.11 1.00623C13.0776 2.07314 12.7069 4.4895 11.484 5.61967C10.5484 4.99122 8.3964 3.81955 7.27359 4.16042C5.87007 4.58651 6.61442 7.60865 11.518 7.87184ZM11.518 7.87184C12.4501 6.94514 14.5866 5.43729 15.676 6.81952C16.7654 8.20175 13.5706 9.45357 11.837 9.9067M11.518 7.87184C11.6301 8.51763 11.7364 9.19939 11.837 9.9067M11.837 9.9067C11.9692 10.8357 12.0916 11.8089 12.2045 12.8026M12.2045 12.8026C11.6076 11.8025 10.0368 9.99871 8.52862 10.7842C6.64336 11.7662 9.72878 14.6089 12.3849 14.4846M12.2045 12.8026C12.2386 13.1023 12.2717 13.404 12.3041 13.7068M12.3849 14.4846C12.3586 14.2247 12.3316 13.9653 12.3041 13.7068M12.3849 14.4846C12.4572 15.1974 12.5247 15.9139 12.5875 16.6258M12.3041 13.7068C12.7285 12.569 13.9963 10.4982 15.6712 11.3172C17.7648 12.341 13.7702 15.9593 12.5875 16.6258M12.5875 16.6258C12.0297 16.0775 10.686 15.2579 9.77442 16.3659C8.63489 17.7508 12.1742 18.5408 12.7437 18.5002M12.5875 16.6258C12.6432 17.2562 12.6952 17.8829 12.7437 18.5002" stroke="#970970" stroke-width="0.661998" stroke-linejoin="round"/>
<path d="M4.00074 25.3026L3.93849 24.9775L4.00074 25.3026ZM16.4578 29.009L16.3482 28.6967L16.4578 29.009ZM14.1726 26.5566L14.4579 26.3888L14.1726 26.5566ZM12.4448 26.278L12.5803 26.5799L12.4448 26.278ZM14.3677 30.5139L14.2959 30.837L14.3677 30.5139ZM12.3488 29.3036L12.1111 29.0733L12.3488 29.3036ZM12.8907 31.768L12.9532 31.4429L12.8907 31.768ZM11.2911 26.914L11.4606 27.1983L11.2911 26.914ZM7.54123 27.5866L7.55593 27.256L7.54123 27.5866ZM6.10728 26.9955C5.93634 26.9307 5.74524 27.0167 5.68045 27.1877C5.61565 27.3586 5.7017 27.5497 5.87264 27.6145L5.98996 27.305L6.10728 26.9955ZM6.98686 27.5429L7.02735 27.2144L6.98686 27.5429ZM0.322144 35.5859L0.644285 35.662C1.03786 33.9951 1.69321 31.4838 2.37946 29.3675C2.72306 28.3079 3.0712 27.3574 3.39489 26.6637C3.55731 26.3156 3.70795 26.0444 3.84224 25.8591C3.90932 25.7665 3.9661 25.7041 4.0111 25.6655C4.058 25.6252 4.075 25.6254 4.06299 25.6277L4.00074 25.3026L3.93849 24.9775C3.7955 25.0049 3.67532 25.0812 3.57974 25.1633C3.48227 25.247 3.39128 25.3532 3.30619 25.4707C3.13614 25.7053 2.96487 26.0197 2.79498 26.3838C2.45408 27.1144 2.09611 28.0952 1.74974 29.1633C1.05605 31.3025 0.396026 33.8326 2.32458e-06 35.5098L0.322144 35.5859ZM4.00074 25.3026L4.06299 25.6277C4.42025 25.5593 5.00415 25.3586 5.6745 25.1253C6.3584 24.8873 7.15961 24.605 7.98442 24.3548C8.8101 24.1043 9.64823 23.8896 10.4029 23.7846C11.1667 23.6783 11.8016 23.6913 12.2454 23.857L12.3612 23.5469L12.4769 23.2368C11.8757 23.0123 11.1068 23.0183 10.3117 23.1289C9.50745 23.2408 8.63169 23.4667 7.79225 23.7213C6.95194 23.9762 6.13681 24.2635 5.45691 24.5001C4.76346 24.7414 4.23612 24.9205 3.93849 24.9775L4.00074 25.3026ZM12.3612 23.5469L12.2454 23.857C12.7174 24.0332 13.3007 24.4106 13.8945 24.9054C14.484 25.3967 15.0641 25.9871 15.5308 26.5687C16.0027 27.1569 16.3374 27.71 16.4653 28.1272C16.5296 28.3368 16.5295 28.4736 16.5062 28.5523C16.4894 28.6088 16.4559 28.6589 16.3482 28.6967L16.4578 29.009L16.5674 29.3214C16.8568 29.2198 17.0584 29.0191 17.1409 28.7403C17.2169 28.4837 17.1802 28.2007 17.0982 27.9331C16.9335 27.3958 16.5366 26.7646 16.0471 26.1544C15.5523 25.5377 14.9411 24.9158 14.3183 24.3969C13.6999 23.8815 13.05 23.4507 12.4769 23.2368L12.3612 23.5469ZM13.1415 28.4795L13.387 28.7015C13.6137 28.4507 13.9409 28.0486 14.1857 27.6534C14.3073 27.4571 14.4178 27.2481 14.4817 27.0514C14.5396 26.8734 14.5901 26.6135 14.4579 26.3888L14.1726 26.5566L13.8873 26.7245C13.8666 26.6893 13.8985 26.7041 13.8521 26.8467C13.8119 26.9706 13.7325 27.128 13.623 27.3047C13.4057 27.6555 13.1058 28.0253 12.8959 28.2576L13.1415 28.4795ZM14.1726 26.5566L14.4579 26.3888C14.4048 26.2986 14.3257 26.1462 14.2469 26.0353C14.1566 25.9081 14.0302 25.7758 13.8351 25.7008C13.6444 25.6274 13.4292 25.6246 13.1886 25.6713C12.949 25.7178 12.6615 25.8178 12.3092 25.976L12.4448 26.278L12.5803 26.5799C12.9108 26.4316 13.1459 26.3539 13.3147 26.3212C13.4825 26.2886 13.5617 26.3049 13.5974 26.3187C13.6287 26.3307 13.6609 26.3534 13.7072 26.4187C13.7652 26.5003 13.801 26.5778 13.8873 26.7245L14.1726 26.5566ZM16.4578 29.009L16.3482 28.6967C15.972 28.8287 15.6014 28.8665 15.2527 28.8474L15.2346 29.1779L15.2164 29.5084C15.6394 29.5316 16.0983 29.486 16.5674 29.3214L16.4578 29.009ZM15.2346 29.1779L15.2527 28.8474C14.2777 28.7938 13.5006 28.3004 13.3022 28.1902L13.1415 28.4795L12.9807 28.7689C13.1505 28.8632 14.0626 29.445 15.2164 29.5084L15.2346 29.1779ZM15.2346 29.1779L14.9045 29.1528C14.8871 29.381 14.8264 29.7041 14.7135 29.9421C14.657 30.0611 14.5998 30.1322 14.5532 30.1672C14.5187 30.193 14.4894 30.2019 14.4395 30.1908L14.3677 30.5139L14.2959 30.837C14.5469 30.8928 14.7717 30.8307 14.9502 30.6969C15.1166 30.5722 15.2314 30.3949 15.3116 30.2259C15.4721 29.8876 15.5438 29.4759 15.5646 29.203L15.2346 29.1779ZM13.1415 28.4795L12.902 28.251C12.6647 28.4998 12.3982 28.7769 12.1111 29.0733L12.3488 29.3036L12.5865 29.5339C12.8748 29.2365 13.1424 28.9581 13.3809 28.708L13.1415 28.4795ZM14.3677 30.5139L14.4395 30.1908C14.3222 30.1647 14.1894 30.1324 14.0498 30.094L13.962 30.4131L13.8742 30.7323C14.0254 30.7739 14.169 30.8088 14.2959 30.837L14.3677 30.5139ZM13.962 30.4131L14.0498 30.094C13.6836 29.9933 13.2927 29.8566 13.0101 29.6924C12.8683 29.6099 12.7739 29.5319 12.7213 29.4652C12.673 29.404 12.6733 29.3716 12.676 29.3535L12.3488 29.3036L12.0216 29.2537C11.9842 29.4991 12.0722 29.7113 12.2016 29.8753C12.3266 30.0337 12.4998 30.1615 12.6775 30.2647C13.034 30.4719 13.4899 30.6265 13.8742 30.7323L13.962 30.4131ZM13.962 30.4131L13.6396 30.3383C13.5869 30.5655 13.4749 30.8946 13.3194 31.1441C13.1471 31.4207 13.02 31.4558 12.9532 31.4429L12.8907 31.768L12.8282 32.093C13.341 32.1916 13.6918 31.7984 13.8813 31.4942C14.0877 31.1629 14.2216 30.7588 14.2845 30.488L13.962 30.4131ZM12.3488 29.3036L12.1111 29.0733C11.7893 29.4054 11.4416 29.7615 11.0797 30.1286L11.3154 30.3609L11.5512 30.5933C11.9144 30.2248 12.2635 29.8673 12.5865 29.5339L12.3488 29.3036ZM11.3154 30.3609L11.0797 30.1286C9.97815 31.2461 8.74823 32.4627 7.721 33.4136C7.20688 33.8895 6.74755 34.2951 6.38249 34.5875C6.19961 34.734 6.04517 34.8483 5.92235 34.9279C5.86098 34.9676 5.81138 34.9962 5.77293 35.0154C5.73172 35.0358 5.71584 35.0391 5.71938 35.0384L5.78429 35.363L5.84921 35.6875C5.99114 35.6591 6.14525 35.5723 6.28239 35.4834C6.43141 35.3868 6.60514 35.2574 6.79637 35.1042C7.17953 34.7972 7.65218 34.3794 8.17071 33.8994C9.20878 32.9385 10.4468 31.7136 11.5512 30.5933L11.3154 30.3609ZM12.8907 31.768L12.9532 31.4429C12.6489 31.3844 12.273 31.208 11.9929 30.9802C11.854 30.8672 11.7527 30.753 11.6939 30.65C11.6357 30.5481 11.6292 30.477 11.6393 30.4291L11.3154 30.3609L10.9915 30.2928C10.9386 30.5446 11.0069 30.7818 11.119 30.9783C11.2305 31.1735 11.3951 31.3474 11.5752 31.4938C11.9331 31.7848 12.4079 32.0122 12.8282 32.093L12.8907 31.768ZM11.3154 30.3609L10.9906 30.4247C11.1692 31.3351 11.3188 32.8269 11.1837 34.3199C11.0475 35.8248 10.6284 37.2611 9.73316 38.136L9.96451 38.3727L10.1959 38.6094C11.2626 37.567 11.7024 35.9333 11.843 34.3795C11.9847 32.814 11.8288 31.2585 11.6402 30.2972L11.3154 30.3609ZM12.4448 26.278L12.3092 25.976C12.0448 26.0947 11.6238 26.3303 11.1216 26.6297L11.2911 26.914L11.4606 27.1983C11.9643 26.898 12.3552 26.681 12.5803 26.5799L12.4448 26.278ZM11.2911 26.914L11.1982 26.5963C10.7909 26.7155 10.1145 26.8925 9.417 27.0338C8.71109 27.1768 8.01579 27.2764 7.55593 27.256L7.54123 27.5866L7.52654 27.9173C8.07426 27.9416 8.83884 27.8264 9.54845 27.6826C10.2665 27.5371 10.9612 27.3554 11.3841 27.2317L11.2911 26.914ZM7.54123 27.5866L7.55593 27.256C7.34306 27.2465 7.16887 27.2318 7.02735 27.2144L6.98686 27.5429L6.94637 27.8714C7.10809 27.8913 7.29981 27.9072 7.52654 27.9173L7.54123 27.5866ZM6.98686 27.5429L7.02735 27.2144C6.75413 27.1807 6.62197 27.1606 6.51159 27.1335C6.40279 27.1068 6.30883 27.0719 6.10728 26.9955L5.98996 27.305L5.87264 27.6145C6.06585 27.6877 6.19863 27.7383 6.35373 27.7764C6.50725 27.8141 6.67616 27.8381 6.94637 27.8714L6.98686 27.5429ZM11.2911 26.914L11.1216 26.6297C9.85663 27.3839 7.98729 28.5972 6.51771 29.5988L6.70413 29.8723L6.89055 30.1459C8.35362 29.1487 10.211 27.9433 11.4606 27.1983L11.2911 26.914ZM6.70413 29.8723L6.51771 29.5988C5.90653 30.0154 5.3618 30.3972 4.95689 30.6954C4.75484 30.8442 4.58455 30.9745 4.45724 31.079C4.39382 31.1311 4.33775 31.1795 4.29253 31.2225C4.25493 31.2582 4.19991 31.3129 4.1628 31.3747L4.44662 31.545L4.73045 31.7153C4.71671 31.7382 4.71165 31.7374 4.74837 31.7025C4.77746 31.6749 4.82007 31.6377 4.87741 31.5906C4.99163 31.4968 5.15126 31.3744 5.34948 31.2284C5.74514 30.937 6.28244 30.5603 6.89055 30.1459L6.70413 29.8723ZM6.98686 27.5429L6.65727 27.5734C6.67896 27.8078 6.69234 28.207 6.65967 28.624C6.62637 29.0491 6.54799 29.4523 6.4098 29.7209L6.70413 29.8723L6.99846 30.0238C7.19816 29.6356 7.28442 29.1254 7.31965 28.6757C7.35551 28.2179 7.3413 27.7808 7.31645 27.5124L6.98686 27.5429Z" fill="#970970"/>
<path d="M31.0535 45.8849C30.667 42.1649 29.5945 34.4351 28.3964 33.2757C26.8988 31.8263 24.9663 29.2658 24.0001 29.7973C23.0339 30.3287 25.3045 33.5172 25.8359 33.8554C25.3367 33.6138 24.2127 33.1501 23.7102 33.2274M23.7102 33.2274C23.0822 33.324 19.2656 29.9905 17.8163 30.5702C16.3669 31.15 16.9467 32.6476 17.9612 32.9858M23.7102 33.2274C23.8874 33.5494 24.1064 34.3095 23.5653 34.7733C23.2741 35.0229 22.3827 34.7889 21.381 34.4144M17.9612 32.9858C18.5389 33.1784 20.0564 33.9191 21.381 34.4144M17.9612 32.9858C16.1061 32.7926 16.4153 34.0325 16.8017 34.6767M21.381 34.4144C21.8675 34.7917 22.7344 35.6332 22.3092 35.9811C22.1517 36.1099 21.5829 36.0439 20.8446 35.8802M16.8017 34.6767C16.1254 34.725 14.8983 35.0535 15.4007 35.9811C15.8612 36.8312 18.633 37.6553 20.4601 38.0346M16.8017 34.6767C17.846 35.0417 19.5899 35.602 20.8446 35.8802M20.8446 35.8802C22.3072 36.2602 22.8889 38.2517 21.9227 38.2517C21.6649 38.2517 21.1251 38.1726 20.4601 38.0346M20.4601 38.0346C21.5596 38.5418 23.4397 39.6237 22.1643 39.8943C21.1674 40.1057 19.1128 39.845 17.6539 39.549M20.4601 38.0346C19.8883 37.8937 18.4139 37.5854 17.0916 37.4787C15.4387 37.3455 15.7872 38.7831 16.0288 39.073C16.1193 39.1816 16.7796 39.3716 17.6539 39.549M17.6539 39.549C18.964 40.3631 22.0723 41.9961 24.9071 42.6239M24.9071 42.6239C25.221 42.6934 25.5316 42.7506 25.8359 42.793L24.9071 42.6239ZM24.9071 42.6239C24.9929 44.0974 25.2376 46.0258 25.3045 46.2714" stroke="#970970" stroke-width="0.661998" stroke-linejoin="round"/>
</svg>
