<svg width="95" height="35" viewBox="0 0 95 35" fill="none" xmlns="http://www.w3.org/2000/svg">
<path d="M9.13347 27.9328L9.10633 26.2857C9.07444 24.3516 9.0232 21.2456 8.97472 18.3476C8.00702 18.0335 7.11685 17.7579 6.35717 17.547C4.61175 17.0625 3.51016 16.7869 2.62124 16.6456C2.06523 16.5572 0.757751 16.3171 0.576257 16.2874C0.394764 16.2577 0.714394 16.1983 4.85043 14.8038C5.96862 14.4268 7.36503 13.9524 8.89135 13.4322C8.89088 13.4047 8.8904 13.3775 8.88993 13.3504C8.83121 9.97433 6.96432 5.39422 6.97825 5.36788C7.03683 5.25713 11.9506 10.0777 14.147 11.6284C14.1499 11.6304 14.1528 11.6324 14.1557 11.6345C16.7826 10.7364 19.3273 9.86591 21.1723 9.2383C25.4155 7.79499 25.7182 7.71872 25.6963 7.86967C25.6743 8.02062 25.3184 8.40109 22.9199 11.4877C21.8465 12.869 20.3661 14.7901 18.82 16.8005C19.1537 17.1124 19.5171 17.4213 19.918 17.7231C22.8099 19.8998 24.7735 21.7545 24.9794 22.5739C25.1852 23.3933 23.5738 23.1212 19.6957 21.9346C18.5577 21.5864 17.233 21.1464 15.8429 20.6744C14.9633 21.8193 14.1374 22.8942 13.4354 23.8063C11.6967 26.0656 10.768 27.3352 10.0941 28.2462C9.79058 28.6565 9.14188 28.4431 9.13347 27.9328Z" fill="#CCA9DE" stroke="#CCA9DE" stroke-width="1.07619" stroke-linecap="round"/>
<path d="M51.4461 27.8268L51.4309 26.1796C51.413 24.2453 51.3842 21.1389 51.358 18.2407C52.3173 17.9017 53.2001 17.6033 53.9541 17.373C55.6865 16.8437 56.7806 16.5399 57.6656 16.3757C58.2192 16.273 59.52 15.9993 59.7007 15.9649C59.8813 15.9305 59.5603 15.8794 55.3897 14.5919C54.2622 14.2438 52.854 13.8055 51.3148 13.3248C51.3146 13.2973 51.3144 13.2701 51.3141 13.243C51.2859 9.8665 53.0343 5.23984 53.0197 5.21387C52.9583 5.10467 48.1703 10.0501 46.0145 11.6569C46.0116 11.659 46.0088 11.6611 46.006 11.6632C43.3567 10.833 40.7906 10.0284 38.9299 9.44847C34.6511 8.11489 34.3464 8.04644 34.3723 8.19677C34.3981 8.34711 34.7637 8.71829 37.2409 11.7421C38.3495 13.0954 39.8788 14.9777 41.4762 16.9476C41.1506 17.268 40.7953 17.5861 40.4023 17.8982C37.5674 20.1486 35.6522 22.0532 35.4675 22.8777C35.2828 23.7021 36.8867 23.3886 40.733 22.1026C41.8616 21.7252 43.1746 21.2512 44.5521 20.7436C45.4609 21.8655 46.3142 22.9187 47.0394 23.8125C48.8357 26.0262 49.7968 27.2714 50.4939 28.1648C50.8079 28.5672 51.4509 28.3371 51.4461 27.8268Z" fill="#CCA9DE" stroke="#CCA9DE" stroke-width="1.07619" stroke-linecap="round"/>
<path d="M72.807 27.6374L73.9993 26.5007C75.3994 25.166 77.6478 23.0224 79.7461 21.023C80.649 21.4918 81.4701 21.9325 82.1535 22.3256C83.7237 23.2288 84.6931 23.8201 85.4177 24.3541C85.8709 24.6881 86.9596 25.4509 87.1082 25.5593C87.2567 25.6678 87.0747 25.3984 85.1651 21.4735C84.6488 20.4124 84.0066 19.0847 83.3059 17.6324C83.3258 17.6135 83.3455 17.5947 83.3651 17.5761C85.8112 15.2483 90.3839 13.3635 90.3929 13.3351C90.4307 13.2157 83.5482 13.0989 80.902 12.6227C80.8986 12.6221 80.8951 12.6215 80.8916 12.6209C79.6875 10.1193 78.5216 7.69578 77.6737 5.94102C75.7237 1.90559 75.5655 1.63639 75.4734 1.75799C75.3813 1.87958 75.3601 2.40014 74.8449 6.27497C74.6143 8.0091 74.2849 10.4119 73.9381 12.9242C73.4817 12.9054 73.0066 12.8634 72.5102 12.7896C68.93 12.2575 66.2307 12.1605 65.5026 12.589C64.7744 13.0175 66.0992 13.9743 69.6664 15.9039C70.7131 16.4701 71.9563 17.1049 73.2682 17.7639C73.07 19.194 72.884 20.5367 72.727 21.6769C72.338 24.5011 72.0855 26.0537 71.9096 27.1732C71.8303 27.6773 72.4376 27.9896 72.807 27.6374Z" fill="#CCA9DE" stroke="#CCA9DE" stroke-width="1.07619" stroke-linecap="round"/>
</svg>
